<svg width="52" height="52" viewBox="0 0 52 52" fill="none" xmlns="http://www.w3.org/2000/svg">
<g clip-path="url(#clip0_3_2)">
<path d="M11.2992 19.0385H15.9662C17.2683 19.0385 18.3235 20.0937 18.3235 21.3958V32.1295C18.3235 33.4295 17.2683 34.4868 15.9662 34.4868H13.1083V20.5292C13.1083 20.4746 13.0954 20.4208 13.0705 20.3722C13.0457 20.3236 13.0096 20.2816 12.9653 20.2497L11.2992 19.0385ZM26 50.0478C22.3977 50.0513 18.8408 49.2439 15.5931 47.6855C12.3453 46.127 9.49002 43.8576 7.23883 41.0453C7.22756 41.0307 7.22061 41.0131 7.21874 40.9947C7.21688 40.9763 7.22018 40.9577 7.22828 40.9411C7.23638 40.9244 7.24895 40.9104 7.26459 40.9005C7.28023 40.8905 7.29832 40.8852 7.31683 40.885H20.1782C20.2973 40.8849 20.4134 40.8469 20.5097 40.7767L25.428 37.206C25.4712 37.1738 25.5062 37.132 25.5303 37.0838C25.5544 37.0357 25.5668 36.9825 25.5667 36.9287V16.5013C25.5669 16.4469 25.5543 16.3932 25.5298 16.3447C25.5053 16.2961 25.4697 16.254 25.4258 16.2218L20.5097 12.6533C20.4133 12.5832 20.2973 12.5453 20.1782 12.545H6.253C6.23537 12.5444 6.21822 12.5391 6.2033 12.5297C6.18838 12.5203 6.17622 12.5071 6.16807 12.4915C6.15992 12.4758 6.15607 12.4583 6.1569 12.4407C6.15774 12.423 6.16324 12.406 6.17283 12.3912C8.38028 9.17046 11.3395 6.53638 14.7944 4.71704C18.2492 2.8977 22.0954 1.94794 26 1.95C34.229 1.95 41.4917 6.08183 45.8272 12.3868C45.8368 12.4018 45.8424 12.4191 45.8431 12.4369C45.8438 12.4547 45.8398 12.4723 45.8314 12.488C45.823 12.5037 45.8105 12.5169 45.7953 12.5262C45.7801 12.5354 45.7626 12.5404 45.7448 12.5407H42.2847C42.172 12.5407 42.068 12.6057 42.0182 12.7118L41.2533 14.352L38.909 12.649C38.8127 12.5787 38.6967 12.5408 38.5775 12.5407H33.046C32.9261 12.5405 32.8093 12.5784 32.7123 12.649L27.7983 16.2218C27.7545 16.254 27.7188 16.2961 27.6943 16.3447C27.6699 16.3932 27.6572 16.4469 27.6575 16.5013V36.9287C27.6575 37.037 27.7095 37.141 27.7983 37.206L32.7167 40.7767C32.8129 40.8469 32.929 40.8849 33.0482 40.885H44.6853C44.7677 40.885 44.8153 40.9825 44.7633 41.0453C42.5121 43.8583 39.6566 46.1283 36.4084 47.6871C33.1602 49.2459 29.6028 50.0535 26 50.05V50.0478ZM3.471 17.9833L5.72 19.6192C5.81317 19.6842 5.86733 19.7925 5.86733 19.9052V38.8202C5.86733 38.9198 5.73733 38.9567 5.68533 38.8743C3.24001 35.0261 1.94482 30.5594 1.95217 26C1.95217 23.2072 2.42883 20.527 3.30417 18.0332C3.30969 18.0171 3.31892 18.0025 3.33113 17.9906C3.34333 17.9788 3.35816 17.9699 3.3744 17.9649C3.39065 17.9598 3.40787 17.9587 3.42465 17.9615C3.44143 17.9643 3.45731 17.9711 3.471 17.9812V17.9833ZM33.0893 19.0407H40.0768V22.8887C40.0768 22.9883 40.1592 23.0707 40.2588 23.0707H46.111C46.1614 23.0702 46.2099 23.0519 46.248 23.019C46.2861 22.986 46.3113 22.9406 46.319 22.8908L47.4782 15.5805C47.4819 15.5601 47.4919 15.5414 47.5068 15.5269C47.5217 15.5125 47.5408 15.5031 47.5613 15.5C47.5818 15.4969 47.6028 15.5003 47.6213 15.5096C47.6398 15.519 47.6549 15.534 47.6645 15.5523C49.2382 18.8108 50.0531 22.3836 50.0478 26.0022C50.054 30.0823 49.0173 34.0963 47.0362 37.6632C46.9885 37.7498 46.8542 37.7152 46.8542 37.6133V30.9313C46.8542 30.8831 46.835 30.8368 46.8009 30.8026C46.7667 30.7685 46.7204 30.7493 46.6722 30.7493H40.2588C40.2106 30.7493 40.1643 30.7685 40.1301 30.8026C40.096 30.8368 40.0768 30.8831 40.0768 30.9313V34.489H37.258C36.6326 34.489 36.0328 34.2407 35.5903 33.7987C35.1479 33.3567 34.8991 32.7571 34.8985 32.1317V20.5292C34.8988 20.4748 34.8861 20.4211 34.8617 20.3725C34.8372 20.3239 34.8015 20.2818 34.7577 20.2497L33.0893 19.0407ZM26 0C11.6415 0 0 11.6415 0 26C0 40.3585 11.6415 52 26 52C40.3585 52 52 40.3585 52 26C52 11.6415 40.3585 0 26 0Z" fill="black"/>
</g>
<defs>
<clipPath id="clip0_3_2">
<rect width="52" height="52" fill="white"/>
</clipPath>
</defs>
</svg>
