<svg width="121" height="48" viewBox="0 0 121 48" fill="none" xmlns="http://www.w3.org/2000/svg">
<path d="M18.41 4.5H24.68C24.8765 4.5 25.0711 4.53886 25.2525 4.61437C25.4339 4.68987 25.5986 4.80052 25.7371 4.93994C25.8756 5.07936 25.9852 5.2448 26.0595 5.42673C26.1338 5.60866 26.1713 5.80349 26.17 6V11.34H16.92V6C16.9187 5.80349 16.9562 5.60866 17.0305 5.42673C17.1048 5.2448 17.2144 5.07936 17.3529 4.93994C17.4913 4.80052 17.6561 4.68987 17.8375 4.61437C18.0189 4.53886 18.2135 4.5 18.41 4.5ZM16.92 11.33H26.17V36.67H16.92V11.33ZM34.85 10.41C35.3074 10.3379 35.7747 10.4501 36.1495 10.7219C36.5244 10.9936 36.7763 11.4029 36.85 11.86L37.64 16.86L27 18.57L26.21 13.57C26.1715 13.3439 26.1783 13.1125 26.2301 12.8891C26.2818 12.6657 26.3775 12.4548 26.5115 12.2687C26.6455 12.0826 26.8151 11.925 27.0106 11.805C27.206 11.6851 27.4234 11.6052 27.65 11.57L34.86 10.42L34.85 10.41ZM37.63 16.88L40.57 35.32L29.93 37L27 18.57L37.64 16.88H37.63ZM40.57 35.32L41.37 40.32C41.407 40.5466 41.3988 40.7784 41.3459 41.0018C41.293 41.2253 41.1963 41.436 41.0615 41.622C40.9267 41.8079 40.7564 41.9653 40.5605 42.0851C40.3646 42.2049 40.1469 42.2847 39.92 42.32L32.71 43.47C32.2526 43.5421 31.7853 43.4299 31.4105 43.1581C31.0356 42.8864 30.7837 42.4771 30.71 42.02L29.92 37.02L40.56 35.33L40.57 35.32ZM8.29 7.84H15.29C15.7356 7.84 16.1629 8.017 16.4779 8.33206C16.793 8.64712 16.97 9.07444 16.97 9.52V14.67H6.61V9.52C6.61 9.07444 6.787 8.64712 7.10206 8.33206C7.41712 8.017 7.84443 7.84 8.29 7.84ZM6.61 14.67H16.92V36.67H6.61V14.67ZM6.61 36.67H16.92V41.82C16.92 42.2656 16.743 42.6929 16.4279 43.0079C16.1129 43.323 15.6856 43.5 15.24 43.5H8.24C7.79443 43.5 7.36712 43.323 7.05206 43.0079C6.737 42.6929 6.56 42.2656 6.56 41.82L6.61 36.67ZM16.92 36.67H26.17V42C26.17 42.3952 26.013 42.7742 25.7336 43.0536C25.4542 43.333 25.0752 43.49 24.68 43.49H18.41C18.2143 43.49 18.0206 43.4515 17.8398 43.3766C17.659 43.3017 17.4948 43.1919 17.3564 43.0536C17.218 42.9152 17.1083 42.751 17.0334 42.5702C16.9585 42.3894 16.92 42.1957 16.92 42V36.67Z" fill="#C50000"/>
<path d="M26.17 36.67V11.33H16.92V36.67M26.17 36.67H16.92M26.17 36.67V42C26.17 42.3952 26.013 42.7742 25.7336 43.0536C25.4542 43.333 25.0752 43.49 24.68 43.49H18.41C18.2143 43.49 18.0206 43.4515 17.8398 43.3766C17.659 43.3017 17.4948 43.1919 17.3564 43.0536C17.218 42.9152 17.1083 42.751 17.0334 42.5702C16.9585 42.3894 16.92 42.1957 16.92 42V36.67M16.92 36.67V14.67H6.61M16.92 36.67H6.61M16.92 36.67V41.82C16.92 42.2656 16.743 42.6929 16.4279 43.0079C16.1129 43.323 15.6856 43.5 15.24 43.5H8.24C7.79443 43.5 7.36712 43.323 7.05206 43.0079C6.737 42.6929 6.56 42.2656 6.56 41.82L6.61 36.67M27 18.57L37.64 16.86L36.85 11.86C36.7763 11.4029 36.5244 10.9936 36.1495 10.7219C35.7747 10.4501 35.3074 10.3379 34.85 10.41L34.86 10.42L27.65 11.57C27.4234 11.6052 27.206 11.6851 27.0106 11.805C26.8151 11.925 26.6455 12.0826 26.5115 12.2687C26.3775 12.4548 26.2818 12.6657 26.2301 12.8891C26.1783 13.1125 26.1715 13.3439 26.21 13.57L27 18.57ZM27 18.57L29.93 37L40.57 35.32M27 18.57L37.64 16.88H37.63L40.57 35.32M40.57 35.32L41.37 40.32C41.407 40.5466 41.3988 40.7784 41.3459 41.0018C41.293 41.2253 41.1963 41.436 41.0615 41.622C40.9267 41.8079 40.7564 41.9653 40.5605 42.0851C40.3646 42.2049 40.1469 42.2847 39.92 42.32L32.71 43.47C32.2526 43.5421 31.7853 43.4299 31.4105 43.1581C31.0356 42.8864 30.7837 42.4771 30.71 42.02L29.92 37.02L40.56 35.33L40.57 35.32ZM6.61 14.67H16.97V9.52C16.97 9.07444 16.793 8.64712 16.4779 8.33206C16.1629 8.017 15.7356 7.84 15.29 7.84H8.29C7.84443 7.84 7.41712 8.017 7.10206 8.33206C6.787 8.64712 6.61 9.07444 6.61 9.52V14.67ZM6.61 14.67V36.67M18.41 4.5H24.68C24.8765 4.5 25.0711 4.53886 25.2525 4.61437C25.4339 4.68987 25.5986 4.80052 25.7371 4.93994C25.8756 5.07936 25.9852 5.2448 26.0595 5.42673C26.1338 5.60866 26.1713 5.80349 26.17 6V11.34H16.92V6C16.9187 5.80349 16.9562 5.60866 17.0305 5.42673C17.1048 5.2448 17.2144 5.07936 17.3529 4.93994C17.4913 4.80052 17.6561 4.68987 17.8375 4.61437C18.0189 4.53886 18.2135 4.5 18.41 4.5Z" stroke="black" stroke-linecap="round" stroke-linejoin="round"/>
<path d="M54.74 30.12C53.6867 30.12 52.72 29.8733 51.84 29.38C50.96 28.8867 50.26 28.1933 49.74 27.3C49.22 26.3933 48.96 25.3533 48.96 24.18C48.96 22.8733 49.2533 21.6267 49.84 20.44C50.44 19.24 51.2133 18.28 52.16 17.56C53.12 16.84 54.1067 16.48 55.12 16.48C55.6933 16.48 56.1867 16.5533 56.6 16.7C57.0133 16.8333 57.4067 17.02 57.78 17.26C57.82 17.18 57.8867 17.1133 57.98 17.06C58.0733 17.0067 58.18 16.98 58.3 16.98C58.4733 16.98 58.62 17.04 58.74 17.16C58.86 17.28 58.92 17.4267 58.92 17.6V18.88C58.92 19.0533 58.8533 19.2067 58.72 19.34C58.6 19.46 58.4533 19.52 58.28 19.52C58.1067 19.52 57.9533 19.46 57.82 19.34C57.7 19.22 57.64 19.0733 57.64 18.9V18.74C57.3467 18.46 57.0067 18.2267 56.62 18.04C56.2333 17.84 55.7333 17.74 55.12 17.74C54.3333 17.74 53.5667 18.04 52.82 18.64C52.0733 19.24 51.46 20.04 50.98 21.04C50.5133 22.0267 50.28 23.0733 50.28 24.18C50.28 25.1267 50.4867 25.9533 50.9 26.66C51.3133 27.3667 51.86 27.9133 52.54 28.3C53.22 28.6733 53.9533 28.86 54.74 28.86C56.2733 28.86 57.52 28.2333 58.48 26.98C58.56 26.8867 58.6333 26.8267 58.7 26.8C58.78 26.76 58.8733 26.74 58.98 26.74C59.1533 26.74 59.3 26.8 59.42 26.92C59.5533 27.0267 59.62 27.18 59.62 27.38C59.62 27.54 59.58 27.6667 59.5 27.76C58.94 28.52 58.2467 29.1067 57.42 29.52C56.5933 29.92 55.7 30.12 54.74 30.12ZM66.2852 30.12C65.3118 30.12 64.4385 29.8533 63.6652 29.32C62.9052 28.7733 62.3118 28.0267 61.8852 27.08C61.4585 26.12 61.2452 25.0467 61.2452 23.86C61.2452 22.5267 61.5118 21.2933 62.0452 20.16C62.5785 19.0267 63.2985 18.1333 64.2052 17.48C65.1118 16.8133 66.0918 16.48 67.1452 16.48C68.1318 16.48 69.0052 16.7533 69.7652 17.3C70.5252 17.8333 71.1185 18.58 71.5452 19.54C71.9718 20.5 72.1852 21.5733 72.1852 22.76C72.1852 24.0933 71.9185 25.3267 71.3852 26.46C70.8518 27.58 70.1318 28.4733 69.2252 29.14C68.3185 29.7933 67.3385 30.12 66.2852 30.12ZM66.3652 28.88C67.1652 28.88 67.9052 28.6067 68.5852 28.06C69.2785 27.5133 69.8318 26.7733 70.2452 25.84C70.6585 24.9067 70.8652 23.9 70.8652 22.82C70.8652 21.82 70.6985 20.9333 70.3652 20.16C70.0318 19.3867 69.5718 18.7867 68.9852 18.36C68.4118 17.9333 67.7652 17.72 67.0452 17.72C66.2585 17.72 65.5185 17.9933 64.8252 18.54C64.1318 19.0733 63.5785 19.8067 63.1652 20.74C62.7652 21.6733 62.5652 22.7 62.5652 23.82C62.5652 24.8333 62.7318 25.7267 63.0652 26.5C63.4118 27.26 63.8718 27.8467 64.4452 28.26C65.0185 28.6733 65.6585 28.88 66.3652 28.88ZM74.4786 30.12C74.2919 30.12 74.1453 30.06 74.0386 29.94C73.9319 29.82 73.8786 29.6933 73.8786 29.56C73.8786 29.4 73.9053 29.2333 73.9586 29.06L76.5986 17C76.6253 16.84 76.6919 16.72 76.7986 16.64C76.9186 16.5467 77.0586 16.5 77.2186 16.5C77.3653 16.5 77.4919 16.54 77.5986 16.62C77.7053 16.7 77.7786 16.8 77.8186 16.92L81.1586 27.52L84.9986 16.9C85.0519 16.78 85.1319 16.6867 85.2386 16.62C85.3586 16.54 85.4919 16.5 85.6386 16.5C85.7719 16.5 85.8919 16.5467 85.9986 16.64C86.1053 16.7333 86.1719 16.8533 86.1986 17L88.8786 29C88.9453 29.2267 88.9786 29.4133 88.9786 29.56C88.9786 29.7067 88.9186 29.84 88.7986 29.96C88.6786 30.0667 88.5319 30.12 88.3586 30.12C88.1986 30.12 88.0586 30.08 87.9386 30C87.8319 29.9067 87.7653 29.78 87.7386 29.62L85.4586 19.38L81.7186 29.72C81.6786 29.84 81.5986 29.9333 81.4786 30C81.3719 30.08 81.2519 30.12 81.1186 30.12C80.9853 30.12 80.8653 30.08 80.7586 30C80.6519 29.92 80.5786 29.8133 80.5386 29.68L77.3186 19.56L75.0986 29.62C75.0719 29.78 74.9986 29.9067 74.8786 30C74.7719 30.08 74.6386 30.12 74.4786 30.12ZM91.2164 30C91.0297 30 90.8697 29.94 90.7364 29.82C90.6164 29.7 90.5564 29.5533 90.5564 29.38C90.5564 29.2067 90.6164 29.0667 90.7364 28.96C90.8697 28.84 91.0297 28.78 91.2164 28.78H93.1164V17.82H91.2164C91.0297 17.82 90.8697 17.76 90.7364 17.64C90.6164 17.52 90.5564 17.3733 90.5564 17.2C90.5564 17.0267 90.6164 16.8867 90.7364 16.78C90.8697 16.66 91.0297 16.6 91.2164 16.6H96.2764C96.4497 16.6 96.5964 16.66 96.7164 16.78C96.8364 16.8867 96.8964 17.0267 96.8964 17.2C96.8964 17.3733 96.8364 17.52 96.7164 17.64C96.5964 17.76 96.4497 17.82 96.2764 17.82H94.3964V28.78H96.2764C96.4631 28.78 96.6097 28.84 96.7164 28.96C96.8364 29.0667 96.8964 29.2067 96.8964 29.38C96.8964 29.5533 96.8364 29.7 96.7164 29.82C96.5964 29.94 96.4497 30 96.2764 30H91.2164ZM103.803 30.12C102.749 30.12 101.783 29.8733 100.903 29.38C100.023 28.8867 99.3225 28.1933 98.8025 27.3C98.2825 26.3933 98.0225 25.3533 98.0225 24.18C98.0225 22.8733 98.3158 21.6267 98.9025 20.44C99.5025 19.24 100.276 18.28 101.223 17.56C102.183 16.84 103.169 16.48 104.183 16.48C104.756 16.48 105.249 16.5533 105.663 16.7C106.076 16.8333 106.469 17.02 106.843 17.26C106.883 17.18 106.949 17.1133 107.043 17.06C107.136 17.0067 107.243 16.98 107.363 16.98C107.536 16.98 107.682 17.04 107.803 17.16C107.923 17.28 107.983 17.4267 107.983 17.6V18.88C107.983 19.0533 107.916 19.2067 107.783 19.34C107.663 19.46 107.516 19.52 107.342 19.52C107.169 19.52 107.016 19.46 106.883 19.34C106.763 19.22 106.703 19.0733 106.703 18.9V18.74C106.409 18.46 106.069 18.2267 105.683 18.04C105.296 17.84 104.796 17.74 104.183 17.74C103.396 17.74 102.629 18.04 101.883 18.64C101.136 19.24 100.523 20.04 100.043 21.04C99.5758 22.0267 99.3425 23.0733 99.3425 24.18C99.3425 25.1267 99.5492 25.9533 99.9625 26.66C100.376 27.3667 100.923 27.9133 101.603 28.3C102.283 28.6733 103.016 28.86 103.803 28.86C105.336 28.86 106.583 28.2333 107.543 26.98C107.623 26.8867 107.696 26.8267 107.763 26.8C107.843 26.76 107.936 26.74 108.043 26.74C108.216 26.74 108.363 26.8 108.483 26.92C108.616 27.0267 108.683 27.18 108.683 27.38C108.683 27.54 108.643 27.6667 108.563 27.76C108.003 28.52 107.309 29.1067 106.483 29.52C105.656 29.92 104.763 30.12 103.803 30.12ZM114.808 30.12C113.621 30.12 112.608 29.8667 111.768 29.36C110.941 28.84 110.361 28.1667 110.028 27.34C109.948 27.2067 109.908 27.0733 109.908 26.94C109.908 26.7533 109.974 26.6 110.108 26.48C110.241 26.3467 110.401 26.28 110.588 26.28C110.921 26.28 111.141 26.4533 111.248 26.8C111.474 27.4267 111.914 27.94 112.568 28.34C113.234 28.7267 113.981 28.92 114.808 28.92C115.461 28.92 116.041 28.8067 116.548 28.58C117.068 28.3533 117.468 28.0467 117.748 27.66C118.041 27.2733 118.188 26.84 118.188 26.36C118.188 25.7467 117.934 25.2133 117.428 24.76C116.921 24.3067 116.061 23.9133 114.848 23.58C112.061 22.82 110.668 21.58 110.668 19.86C110.668 19.2067 110.848 18.6267 111.208 18.12C111.581 17.6133 112.114 17.2133 112.808 16.92C113.514 16.6267 114.334 16.48 115.268 16.48C116.588 16.48 117.614 16.7333 118.348 17.24C119.081 17.7333 119.448 18.4 119.448 19.24C119.448 19.4133 119.388 19.5667 119.268 19.7C119.148 19.82 119.001 19.88 118.828 19.88C118.668 19.88 118.528 19.8267 118.408 19.72C118.301 19.6133 118.241 19.4867 118.228 19.34C118.161 18.8333 117.854 18.42 117.308 18.1C116.774 17.78 116.074 17.62 115.208 17.62C114.168 17.62 113.361 17.8133 112.788 18.2C112.228 18.5867 111.948 19.12 111.948 19.8C111.948 20.3733 112.208 20.86 112.728 21.26C113.261 21.66 114.074 22.0133 115.168 22.32C116.608 22.72 117.681 23.2467 118.388 23.9C119.108 24.54 119.468 25.3267 119.468 26.26C119.468 26.98 119.254 27.64 118.828 28.24C118.401 28.8267 117.828 29.2867 117.108 29.62C116.388 29.9533 115.621 30.12 114.808 30.12Z" fill="black"/>
</svg>
